# xmcd CD database file
#
# Track frame offsets:
#	150
#	20762
#	35440
#	48460
#	66772
#	79195
#	91630
#	117912
#	136347
#	155075
#	172462
#	191197
#	211350
#	230287
#	249857
#	268800
#	287117
#	308537
#	328195
#
# Disc length: 4729 seconds
#
# Revision: 0
# Processed by: cddbd v1.5PL3 Copyright (c) Steve Scherf et al.
# Submitted via: CDex 1.50
#
DISCID=16127713
DTITLE=Various Artist - Heros Selected By Brian May
DYEAR=2002
DGENRE=Rock
TTITLE0=Jimi Hendrix Experience - Voodoo Child[slight return]
TTITLE1=The Who - My Generation
TTITLE2=Jeff Beck - Hi Ho Silver Lining
TTITLE3=Cream - Crossroads[live]
TTITLE4=Motorhead - Ace Of Spades
TTITLE5=Black Sabbath =Paranoid
TTITLE6=Yngwie Malmsteen - Far Beyond The Sun
TTITLE7=The Michael Schenker Group - Armed And Ready
TTITLE8=Gary Moore - Still Got The Blues
TTITLE9=Iron Maiden - Run To The Hills
TTITLE10=Whitesnake - Fool For Your Loving
TTITLE11=UFO - Lights Out
TTITLE12=Scorpions - Rock You Like A Hurricane
TTITLE13=Night Ranger - Don't Tell Me You Love Me
TTITLE14=Summy Hager - I Can't Drive
TTITLE15=Def Leppard - Animal
TTITLE16=Billy Idol - Rebel Yell
TTITLE17=Thin Lizzy - The Boys Are Back In Town
TTITLE18=Queen - Bohemian Rhapsody
EXTD=YEAR: 2002
EXTT0=
EXTT1=
EXTT2=
EXTT3=
EXTT4=
EXTT5=
EXTT6=
EXTT7=
EXTT8=
EXTT9=
EXTT10=
EXTT11=
EXTT12=
EXTT13=
EXTT14=
EXTT15=
EXTT16=
EXTT17=
EXTT18=
PLAYORDER=
